<?xml version="1.0" encoding="UTF-8"?>
<svg version="1.1" xmlns="http://www.w3.org/2000/svg" width="1280" height="969">
<path d="M0 0 C14.42904061 -0.91130783 26.10631055 1.18948711 39 8 C39 8.66 39 9.32 39 10 C40.65 10.33 42.3 10.66 44 11 C42.5394074 8.49612697 41.08462714 6.10970184 39.3125 3.8125 C38 2 38 2 38 0 C44.57533093 -0.30357618 49.34896803 0.33466402 55.375 2.9375 C56.1074292 3.24598877 56.8398584 3.55447754 57.59448242 3.87231445 C64.36013848 6.87786851 69.65166232 10.86065598 75 16 C76.03447266 16.93005859 76.03447266 16.93005859 77.08984375 17.87890625 C79.42084533 20.46731904 80.74927665 23.1121239 82.25 26.25 C83.03117187 27.86648438 83.03117187 27.86648438 83.828125 29.515625 C84.21484375 30.33546875 84.6015625 31.1553125 85 32 C85.33 30.02 85.66 28.04 86 26 C86.99 26 87.98 26 89 26 C93.58934859 36.95382258 96.92055054 46.67809144 97.75390625 58.6171875 C97.9278914 61.14549796 97.9278914 61.14549796 99 64 C99.66 64 100.32 64 101 64 C103.94174451 69.75864045 104.50844706 74.45015283 104.4375 80.875 C104.43427734 81.78596436 104.43105469 82.69692871 104.42773438 83.63549805 C104.24995864 92.44229335 102.4716686 100.58087883 100 109 C101.16982422 108.94779297 101.16982422 108.94779297 102.36328125 108.89453125 C105 109 105 109 107.1875 110.6875 C110.93088381 115.46354141 111.68649489 120.01917329 111 126 C109.18225258 134.05536013 106.92468764 140.88423669 100.125 145.9375 C94.70232154 150.61465827 93.10970354 155.38561195 91.19921875 162.08984375 C88.04708361 172.99650191 81.66052595 184.91174835 73.92895508 193.22753906 C71.54776851 196.64998617 71.48985272 198.62372334 71.4609375 202.76171875 C71.43773437 204.04498047 71.41453125 205.32824219 71.390625 206.65039062 C71.38407739 207.9960879 71.37888418 209.3417924 71.375 210.6875 C71.35349735 213.33770218 71.31615872 215.98666796 71.2734375 218.63671875 C71.26747559 219.80936279 71.26151367 220.98200684 71.25537109 222.19018555 C71 225 71 225 69 227 C65.70285207 226.67028521 64.3773161 226.3773161 62 224 C61.68115234 222.12060547 61.68115234 222.12060547 61.5859375 219.8671875 C61.54726563 219.06152344 61.50859375 218.25585938 61.46875 217.42578125 C61.4378125 216.58402344 61.406875 215.74226562 61.375 214.875 C61.33632813 214.02550781 61.29765625 213.17601562 61.2578125 212.30078125 C61.16343506 210.20088316 61.08062414 208.10047109 61 206 C60.34 206 59.68 206 59 206 C58.67 206.99 58.34 207.98 58 209 C46.48242564 215.82715946 35.17377905 218.33704329 22 216 C15.5602067 214.16667755 9.20386783 212.35140049 4 208 C3.94392578 209.68029297 3.94392578 209.68029297 3.88671875 211.39453125 C3.82105743 212.8672209 3.75461014 214.33987566 3.6875 215.8125 C3.66494141 216.55048828 3.64238281 217.28847656 3.61914062 218.04882812 C3.34842633 223.48772446 3.34842633 223.48772446 1.62109375 226.02734375 C0 227 0 227 -2.625 226.75 C-5 226 -5 226 -6 225 C-6.07281922 223.17838757 -6.08433128 221.35426343 -6.0703125 219.53125 C-6.080625 218.40203125 -6.0909375 217.2728125 -6.1015625 216.109375 C-6.11698434 213.73441222 -6.10978902 211.35917677 -6.078125 208.984375 C-6.19496609 201.6066949 -7.18119734 197.41101569 -12.30419922 191.98242188 C-14.19193121 189.77562893 -15.05836424 187.7296192 -16 185 C-16.66 185 -17.32 185 -18 185 C-23.28787665 175.58780998 -27.86311587 166.60867405 -30.734375 156.171875 C-32.20872352 152.47690279 -34.04013466 150.61516052 -37 148 C-43.95967119 141.56230415 -47.72690399 135.67264596 -48.1171875 126.13671875 C-48.3595267 115.11028519 -48.3595267 115.11028519 -44.625 110.1875 C-43 109 -43 109 -39 109 C-39.144375 108.17242187 -39.28875 107.34484375 -39.4375 106.4921875 C-41.22785948 94.97918142 -41.20721863 83.63134109 -41 72 C-43.475 72.495 -43.475 72.495 -46 73 C-45.50085967 63.01719344 -42.00185061 54.00246748 -36 46 C-36.928125 46.66 -37.85625 47.32 -38.8125 48 C-42 50 -42 50 -45 50 C-44.59535841 43.52573455 -39.71612508 39.04981607 -35.75 34.3125 C-31.84036923 31.02485594 -27.62623214 29.15890833 -23 27 C-26.96 27.33 -30.92 27.66 -35 28 C-33 23 -33 23 -31.08203125 21.671875 C-22.97824967 18.38014961 -15.67772687 17.84285806 -7 18 C-7 17.34 -7 16.68 -7 16 C-7.95261719 15.87882812 -8.90523437 15.75765625 -9.88671875 15.6328125 C-11.14097656 15.46523438 -12.39523438 15.29765625 -13.6875 15.125 C-14.92886719 14.96257812 -16.17023438 14.80015625 -17.44921875 14.6328125 C-20.57795295 14.07521631 -23.12148102 13.30991877 -26 12 C-23.21909802 7.82864704 -20.68087002 7.67769198 -15.9296875 6.5625 C-8.00299441 5.42786401 0.01352318 5.78692206 8 6 C5.36 4.68 2.72 3.36 0 2 C0 1.34 0 0.68 0 0 Z M-19.578125 81.25 C-26.4885319 89.75511618 -25.59551788 101.99396172 -25.82421875 112.31640625 C-26.16488916 126.49466747 -26.16488916 126.49466747 -28 132 C-30.0625 132.6875 -30.0625 132.6875 -32 133 C-32.20496094 132.09636719 -32.40992188 131.19273437 -32.62109375 130.26171875 C-33.02521484 128.49248047 -33.02521484 128.49248047 -33.4375 126.6875 C-33.70433594 125.51574219 -33.97117188 124.34398437 -34.24609375 123.13671875 C-34.95313969 119.99763029 -34.95313969 119.99763029 -36 117 C-39.11785113 117.64644661 -39.11785113 117.64644661 -40 120 C-40.76098329 127.45763625 -38.07219673 132.98589567 -33.9375 139 C-32.07356506 141.23178539 -32.07356506 141.23178539 -29 142 C-25.06719512 145.63028143 -23.62892252 148.73435153 -22.1875 153.875 C-17.59821247 170.0670427 -8.45161135 183.82643924 3 196 C3.50660156 196.55429687 4.01320313 197.10859375 4.53515625 197.6796875 C6.72237573 199.65110132 9.21078896 200.19422792 12 201 C12 201.66 12 202.32 12 203 C13.24891614 203.48198463 14.49918808 203.96045677 15.75 204.4375 C16.44609375 204.70433594 17.1421875 204.97117187 17.859375 205.24609375 C27.28922818 208.56719168 38.31815161 208.20032633 47.5078125 204.328125 C54.65257581 200.52057088 60.57931492 194.95262147 66 189 C66.55171875 188.41476562 67.1034375 187.82953125 67.671875 187.2265625 C76.77122473 176.66630799 82.05012208 162.4147732 85.63671875 149.1015625 C87.42838601 145.02539115 89.43542874 143.63428264 93 141 C97.90635029 136.66415556 100.62800747 132.68425483 101.28515625 126.17578125 C101.41976397 122.06986329 101.41976397 122.06986329 101 118 C100.01 117.34 99.02 116.68 98 116 C95.02931839 120.3852919 93.54058233 124.98491285 92 130 C90.68 130 89.36 130 88 130 C86.84447732 126.3136346 86.85850918 122.80689242 86.82421875 118.9609375 C86.80100027 117.56118321 86.77688214 116.16144362 86.75195312 114.76171875 C86.71705506 112.57656286 86.68760491 110.39194183 86.67407227 108.20654297 C86.59963807 98.1315888 86.22888895 89.07466674 79.5 81 C75.71874664 77.97499731 73.17249407 76.54962757 68.19140625 76.66796875 C64.29162802 77.25884424 60.65676094 78.67380249 56.96484375 80.02734375 C42.45211576 84.78843633 23.48122985 83.27504392 9 79 C-6.0043782 74.61205921 -6.0043782 74.61205921 -19.578125 81.25 Z " fill="#6BC6D2" transform="translate(254,379)"/>
<path d="M0 0 C0.79375031 -0.00807175 1.58750061 -0.01614349 2.40530396 -0.02445984 C4.09505008 -0.03832819 5.78482455 -0.04903796 7.47460938 -0.05688477 C10.02530932 -0.07391822 12.57465102 -0.11775332 15.125 -0.16210938 C35.09277032 -0.35616999 35.09277032 -0.35616999 42.44116211 6.26049805 C46.70729951 10.89244689 48.1657569 15.28377378 48.33203125 21.5234375 C47.82188864 31.65341219 47.82188864 31.65341219 43.7578125 35.61328125 C42.9121875 36.14953125 42.0665625 36.68578125 41.1953125 37.23828125 C40.17751264 38.22015876 39.17369054 39.217117 38.1953125 40.23828125 C38.99195313 40.78355469 38.99195313 40.78355469 39.8046875 41.33984375 C46.64821915 46.21024036 50.42330153 50.82122913 52.1953125 59.23828125 C52.8849405 66.96211482 50.09759295 73.33040481 45.1953125 79.23828125 C39.87323224 82.98474564 34.74721166 86.37228709 28.09106445 86.35180664 C26.8601281 86.35169334 26.8601281 86.35169334 25.60432434 86.35157776 C24.2823127 86.34383583 24.2823127 86.34383583 22.93359375 86.3359375 C22.02780075 86.33452255 21.12200775 86.3331076 20.18876648 86.33164978 C17.29508159 86.32605126 14.40147401 86.31349906 11.5078125 86.30078125 C9.54622508 86.29576606 7.58463644 86.29120318 5.62304688 86.28710938 C0.81377229 86.27608232 -3.9954445 86.25881872 -8.8046875 86.23828125 C-8.82781033 75.17293267 -8.84560228 64.1075898 -8.85649967 53.04222202 C-8.86172863 47.90468559 -8.86882651 42.76716562 -8.88012695 37.62963867 C-8.89095537 32.67596715 -8.89696424 27.72231151 -8.89956474 22.76862907 C-8.90141907 20.87430509 -8.90503984 18.97998201 -8.91041756 17.08566475 C-8.91762739 14.44193739 -8.91867847 11.79827654 -8.91821289 9.15454102 C-8.92180817 8.36332352 -8.92540344 7.57210602 -8.92910767 6.75691223 C-8.91456301 -0.82484865 -6.87588054 0.06599226 0 0 Z M5.1953125 12.23828125 C5.1953125 19.82828125 5.1953125 27.41828125 5.1953125 35.23828125 C9.990625 35.33109375 9.990625 35.33109375 14.8828125 35.42578125 C15.88143311 35.45309326 16.88005371 35.48040527 17.90893555 35.50854492 C22.85946572 35.55493276 26.16398064 35.44287513 30.1953125 32.23828125 C31.34 31.43390625 31.34 31.43390625 32.5078125 30.61328125 C34.73268677 27.48197672 34.81563983 25.20714195 34.66015625 21.42578125 C33.9223464 17.95373488 31.91054318 16.37167678 29.1953125 14.23828125 C28.5353125 13.57828125 27.8753125 12.91828125 27.1953125 12.23828125 C24.86714045 11.96062709 24.86714045 11.96062709 22.1875 12.04296875 C21.2991748 12.04796387 20.41084961 12.05295898 19.49560547 12.05810547 C17.80008545 12.08541748 17.80008545 12.08541748 16.0703125 12.11328125 C10.6871875 12.17515625 10.6871875 12.17515625 5.1953125 12.23828125 Z M5.1953125 48.23828125 C5.1953125 56.81828125 5.1953125 65.39828125 5.1953125 74.23828125 C8.8665625 74.32078125 12.5378125 74.40328125 16.3203125 74.48828125 C17.4664502 74.52469727 18.61258789 74.56111328 19.79345703 74.59863281 C25.76291923 74.66352965 29.58413437 74.45169002 34.1953125 70.23828125 C36.95586554 67.33182161 37.62659949 65.35203507 37.6328125 61.36328125 C37.49276965 56.61582879 36.37877692 53.8765263 33.1953125 50.23828125 C27.10843733 46.18036447 11.7898392 44.9410179 5.1953125 48.23828125 Z " fill="#FEFEFE" transform="translate(745.8046875,458.76171875)"/>
<path d="M0 0 C42.90693069 0 42.90693069 0 49.69140625 4.97265625 C50.61759766 6.00712891 50.61759766 6.00712891 51.5625 7.0625 C52.20316406 7.75472656 52.84382813 8.44695312 53.50390625 9.16015625 C56.58744572 12.9521852 56.21865801 16.62295476 56.25 21.3125 C56.270625 22.07240234 56.29125 22.83230469 56.3125 23.61523438 C56.34480059 28.26248234 55.98417303 31.2195859 53 35 C51.11068453 36.86173422 49.10128762 38.36566518 47 40 C47.99 40.66 48.98 41.32 50 42 C54.98242467 45.60430721 58.26883892 48.98445705 60 55 C61.0340871 62.55753376 60.50731361 69.15385222 56.69140625 75.83984375 C52.56970419 81.1038189 47.08318007 83.56672797 41 86 C27.47 86 13.94 86 0 86 C0 57.62 0 29.24 0 0 Z M13 12 C13 19.59 13 27.18 13 35 C16.361875 35.061875 19.72375 35.12375 23.1875 35.1875 C24.23832764 35.21481201 25.28915527 35.24212402 26.37182617 35.27026367 C31.41309885 35.31521893 34.90908551 35.30578949 39 32 C39.5775 31.608125 40.155 31.21625 40.75 30.8125 C42.82199508 27.80810713 43.10776337 24.55619135 43 21 C41.83625027 17.57340358 40.81763016 15.66926335 38.01953125 13.37890625 C33.66685627 11.39120345 29.54820571 11.39196976 24.8125 11.25 C23.89791016 11.20746094 22.98332031 11.16492188 22.04101562 11.12109375 C17.36813217 10.74839844 17.36813217 10.74839844 13 12 Z M13 47 C13 55.91 13 64.82 13 74 C16.83625 74.0825 20.6725 74.165 24.625 74.25 C25.82334473 74.28641602 27.02168945 74.32283203 28.25634766 74.36035156 C34.4813223 74.42516238 38.33748875 74.2972812 43 70 C45.91803293 65.6229506 46.64048309 62.21536229 46 57 C44.68394091 53.66598363 43.09543159 50.83101707 40.1875 48.625 C34.05210766 46.87203076 27.87980511 46.87184604 21.5625 46.9375 C18.736875 46.958125 15.91125 46.97875 13 47 Z " fill="#FEFEFE" transform="translate(397,459)"/>
<path d="M0 0 C0.89589844 -0.01417969 1.79179688 -0.02835937 2.71484375 -0.04296875 C5.0625 0.1875 5.0625 0.1875 7.0625 2.1875 C7.30819272 4.97966791 7.43613138 7.67990605 7.4765625 10.4765625 C7.49592865 11.29498627 7.5152948 12.11341003 7.5352478 12.95663452 C7.59511082 15.57514976 7.64145532 18.19370881 7.6875 20.8125 C7.72567364 22.58595686 7.76472501 24.35939505 7.8046875 26.1328125 C7.90081771 30.48422375 7.98482351 34.83572179 8.0625 39.1875 C8.82796143 38.55287842 9.59342285 37.91825684 10.38208008 37.2644043 C17.09858876 32.06016535 24.94189224 32.5873207 33.0625 33.1875 C37.85003468 34.17336751 42.53185643 35.65685643 46.0625 39.1875 C46.0625 39.8475 46.0625 40.5075 46.0625 41.1875 C46.98675781 41.56841797 46.98675781 41.56841797 47.9296875 41.95703125 C52.3089705 44.48354068 53.60158974 49.96608782 55.3125 54.5 C57.37646858 64.6478455 55.90450424 72.98890548 51.0625 82.1875 C48.98870517 84.93681342 46.78339613 87.08816056 44.0625 89.1875 C43.299375 89.785625 42.53625 90.38375 41.75 91 C33.13361408 94.80724029 24.75178945 94.58298609 15.75 92.375 C12.73857055 91.04436838 10.52362549 89.35908131 8.0625 87.1875 C7.7325 88.8375 7.4025 90.4875 7.0625 92.1875 C2.7725 92.1875 -1.5175 92.1875 -5.9375 92.1875 C-5.96062202 80.33984827 -5.97841437 68.49220186 -5.98931217 56.6445322 C-5.99454131 51.14379138 -6.00163951 45.64306595 -6.01293945 40.14233398 C-6.02376725 34.8385344 -6.0297766 29.53474965 -6.03237724 24.23093987 C-6.03423169 22.20264388 -6.03785267 20.17434874 -6.04323006 18.14605904 C-6.05043906 15.31553486 -6.051491 12.48507282 -6.05102539 9.65454102 C-6.05462067 8.80721909 -6.05821594 7.95989716 -6.06192017 7.0868988 C-6.0492974 0.04339525 -6.0492974 0.04339525 0 0 Z M10.25 51.1875 C7.26697338 55.27850794 6.88657992 58.11149228 6.8125 63.0625 C6.78671875 64.09117187 6.7609375 65.11984375 6.734375 66.1796875 C7.3599864 71.91445862 11.24598421 76.09172696 15.0625 80.1875 C20.49621673 82.12075921 26.80410415 81.61361242 32.375 80.5625 C36.67534638 78.36232278 38.97814253 75.04639853 41.375 70.9375 C43.10419509 64.02071963 42.64387187 58.14335105 39.23046875 51.87890625 C36.42543862 47.81677232 33.90085135 46.33111032 29.0625 45.1875 C21.358132 44.4609092 15.57255145 45.10890431 10.25 51.1875 Z " fill="#FEFEFE" transform="translate(920.9375,452.8125)"/>
<path d="M0 0 C0.89589844 -0.01417969 1.79179688 -0.02835937 2.71484375 -0.04296875 C5.0625 0.1875 5.0625 0.1875 7.0625 2.1875 C7.30300903 4.44009399 7.30300903 4.44009399 7.28955078 7.27978516 C7.28932419 8.87120834 7.28932419 8.87120834 7.28909302 10.49478149 C7.27877045 11.64376923 7.26844788 12.79275696 7.2578125 13.9765625 C7.2549826 15.15012299 7.25215271 16.32368347 7.24923706 17.5328064 C7.23801355 21.29280662 7.21290492 25.05257139 7.1875 28.8125 C7.17747301 31.3567674 7.16834668 33.90103852 7.16015625 36.4453125 C7.13806714 42.6927891 7.10456824 48.94012773 7.0625 55.1875 C8.5475 54.6925 8.5475 54.6925 10.0625 54.1875 C10.35125 53.61 10.64 53.0325 10.9375 52.4375 C12.45316915 49.4061617 14.61749567 47.51607555 17.0625 45.1875 C17.784375 44.424375 18.50625 43.66125 19.25 42.875 C21.0625 41.1875 21.0625 41.1875 23.0625 41.1875 C23.289375 40.589375 23.51625 39.99125 23.75 39.375 C25.47661523 36.49730795 27.04368618 35.64714624 30.0625 34.1875 C33.39453125 33.89453125 33.39453125 33.89453125 36.875 34 C38.61716797 34.04060547 38.61716797 34.04060547 40.39453125 34.08203125 C41.27496094 34.11683594 42.15539062 34.15164063 43.0625 34.1875 C43.3925 35.1775 43.7225 36.1675 44.0625 37.1875 C43.32 37.909375 42.5775 38.63125 41.8125 39.375 C39.10903705 42.02472854 39.10903705 42.02472854 37.23828125 44.58203125 C34.14519935 48.28595518 30.42918664 50.97138329 26.62109375 53.90625 C24.08437032 56.16800036 22.62755749 58.19439343 21.0625 61.1875 C23.42186538 64.0711688 25.70373916 66.8384354 28.375 69.4375 C30.0625 71.1875 30.0625 71.1875 30.0625 73.1875 C30.60648438 73.39375 31.15046875 73.6 31.7109375 73.8125 C34.96584263 75.71570034 37.22027633 78.3904336 39.6875 81.1875 C40.65860895 82.27105315 41.62995366 83.35439507 42.6015625 84.4375 C43.81972656 85.79875 43.81972656 85.79875 45.0625 87.1875 C46.0525 88.1775 46.0525 88.1775 47.0625 89.1875 C47.0625 90.1775 47.0625 91.1675 47.0625 92.1875 C32.83443028 93.97013519 32.83443028 93.97013519 28.35644531 91.09033203 C24.99168393 87.89615001 22.62876356 84.03207153 20.0625 80.1875 C17.54431689 77.53258296 14.92471455 75.05890025 12.25 72.5625 C10.0625 70.1875 10.0625 70.1875 10.0625 67.1875 C9.0725 67.1875 8.0825 67.1875 7.0625 67.1875 C7.06773682 67.90929443 7.07297363 68.63108887 7.07836914 69.37475586 C7.09907358 72.62482849 7.11213918 75.87488728 7.125 79.125 C7.13337891 80.26130859 7.14175781 81.39761719 7.15039062 82.56835938 C7.15361328 83.64794922 7.15683594 84.72753906 7.16015625 85.83984375 C7.16539307 86.84007568 7.17062988 87.84030762 7.17602539 88.87084961 C7.0625 91.1875 7.0625 91.1875 6.0625 92.1875 C4.04285801 92.25994053 2.02082876 92.27127188 0 92.25 C-1.10472656 92.24097656 -2.20945312 92.23195313 -3.34765625 92.22265625 C-4.20230469 92.21105469 -5.05695312 92.19945312 -5.9375 92.1875 C-5.96062202 80.33984827 -5.97841437 68.49220186 -5.98931217 56.6445322 C-5.99454131 51.14379138 -6.00163951 45.64306595 -6.01293945 40.14233398 C-6.02376725 34.8385344 -6.0297766 29.53474965 -6.03237724 24.23093987 C-6.03423169 22.20264388 -6.03785267 20.17434874 -6.04323006 18.14605904 C-6.05043906 15.31553486 -6.051491 12.48507282 -6.05102539 9.65454102 C-6.05462067 8.80721909 -6.05821594 7.95989716 -6.06192017 7.0868988 C-6.0492974 0.04339525 -6.0492974 0.04339525 0 0 Z " fill="#FEFEFE" transform="translate(616.9375,452.8125)"/>
<path d="M0 0 C2.9375 2.4375 2.9375 2.4375 5 5 C5.50402344 5.61875 6.00804687 6.2375 6.52734375 6.875 C10.88756011 13.16666498 12.27453483 22.46990181 12 30 C10 32 10 32 8.12704468 32.24050903 C6.98787094 32.2338472 6.98787094 32.2338472 5.82568359 32.22705078 C4.53457169 32.22682419 4.53457169 32.22682419 3.21737671 32.22659302 C2.28712677 32.21627045 1.35687683 32.20594788 0.3984375 32.1953125 C-0.55316254 32.1924826 -1.50476257 32.18965271 -2.48519897 32.18673706 C-5.53192592 32.17551989 -8.57836154 32.15041263 -11.625 32.125 C-13.68749576 32.11497218 -15.74999612 32.10584599 -17.8125 32.09765625 C-22.87511267 32.07557554 -27.9375069 32.0410353 -33 32 C-32.54386137 33.29643356 -32.08017304 34.59021261 -31.61328125 35.8828125 C-31.35587158 36.60355957 -31.09846191 37.32430664 -30.83325195 38.06689453 C-29.26173492 41.71274036 -26.79691876 42.6478731 -23.3125 44.1875 C-17.80094094 45.53939185 -13.03833976 45.76918481 -7.6875 43.75 C-5.08211912 42.05347292 -3.07108673 40.31005828 -1 38 C2.45925163 39.2491742 5.14693203 40.67527795 8 43 C7.72904443 46.6144451 7.52955818 48.46844725 4.92578125 51.08203125 C4.06339844 51.65308594 3.20101563 52.22414063 2.3125 52.8125 C1.46300781 53.39644531 0.61351562 53.98039063 -0.26171875 54.58203125 C-5.54629282 57.31855106 -11.0966301 57.18197411 -16.9375 57.1875 C-17.61490234 57.19974609 -18.29230469 57.21199219 -18.99023438 57.22460938 C-27.17432711 57.24814943 -32.29488301 55.35743577 -38.140625 49.8515625 C-38.75421875 49.24054687 -39.3678125 48.62953125 -40 48 C-40.51046875 47.51273438 -41.0209375 47.02546875 -41.546875 46.5234375 C-47.6031385 40.14654829 -47.42757812 31.45411294 -47.234375 23.13671875 C-46.51555321 13.51648712 -42.26258521 7.31085798 -35 1 C-25.31242435 -5.44182381 -10.27924583 -5.01038675 0 0 Z M-31 12.8125 C-32.43328564 15.67498239 -32.43328564 15.67498239 -33 22 C-23.1 22 -13.2 22 -3 22 C-1.98571473 17.94285893 -2.09940113 16.39492523 -3.86328125 12.68359375 C-5.93359527 9.61725236 -8.5407065 8.17158437 -12 7 C-19.13031894 6.07995885 -25.59586373 7.9150015 -31 12.8125 Z " fill="#FEFEFE" transform="translate(1032,489)"/>
<path d="M0 0 C7.48497028 5.03556971 7.48497028 5.03556971 8.71484375 9.7265625 C8.80894531 10.47679687 8.90304687 11.22703125 9 12 C9.66 12 10.32 12 11 12 C14.82073941 19.8006763 15.7625767 29.1337832 13.23828125 37.53515625 C12.28669617 39.48722208 11.23351131 41.21543553 10 43 C9.360625 44.11375 8.72125 45.2275 8.0625 46.375 C5.843582 49.19907745 4.41552528 50.05124298 1 51 C1 51.66 1 52.32 1 53 C-5.35543525 56.39941886 -10.25167571 57.1513176 -17.4375 57.1875 C-19.35369141 57.20876953 -19.35369141 57.20876953 -21.30859375 57.23046875 C-30.1927005 56.67579965 -36.29024328 52.02902306 -42.3125 45.8125 C-46.86192652 40.20939159 -48.66364387 32.23835172 -48.26953125 25.0859375 C-46.9749894 15.06730928 -43.61988318 8.78448071 -36 2 C-25.90318655 -4.9272636 -10.96640924 -5.48320462 0 0 Z M-30.25 13.8125 C-34.52718132 19.15897665 -34.66774691 25.42686637 -34 32 C-32.37365463 37.22142461 -30.21410109 40.50537958 -26 44 C-20.19857412 45.92568338 -13.99291981 45.55540388 -8.1875 43.9375 C-3.84668032 41.29896255 -0.93323266 37.94736137 0.6171875 33.05078125 C2.09853451 25.11499372 0.60679598 19.95513873 -3.8125 13.25 C-7.65939248 9.2931963 -11.68213781 8.87913467 -17 8.6875 C-22.50596374 8.81150819 -25.96220733 10.35844479 -30.25 13.8125 Z " fill="#FEFEFE" transform="translate(585,489)"/>
<path d="M0 0 C6.37114583 4.41260841 11.06505624 9.54556094 12.640625 17.34765625 C13.83920297 27.41904058 13.76637666 37.14982288 7.296875 45.3984375 C0.87540894 52.25119605 -5.33410901 55.44449447 -14.69921875 55.87890625 C-15.95863281 55.88535156 -17.21804688 55.89179687 -18.515625 55.8984375 C-19.77246094 55.91261719 -21.02929688 55.92679688 -22.32421875 55.94140625 C-31.32895052 55.38856632 -36.09775068 52.08269758 -42.078125 45.7109375 C-42.99056053 44.40293743 -43.86528524 43.06792951 -44.703125 41.7109375 C-45.12851562 41.0303125 -45.55390625 40.3496875 -45.9921875 39.6484375 C-49.79375488 32.86578491 -49.0796423 23.20882614 -48.078125 15.7109375 C-45.27046931 7.93047471 -39.27822064 1.72008166 -32.078125 -2.2890625 C-21.47200233 -6.01182405 -9.63523283 -5.97674217 0 0 Z M-32.453125 14.0234375 C-36.42328903 19.60453196 -35.91790975 26.15415658 -35.078125 32.7109375 C-34.15548194 35.0428768 -34.15548194 35.0428768 -33.078125 36.7109375 C-32.418125 36.7109375 -31.758125 36.7109375 -31.078125 36.7109375 C-30.789375 37.3296875 -30.500625 37.9484375 -30.203125 38.5859375 C-28.91372718 41.02146672 -27.91953647 42.42503855 -25.26171875 43.328125 C-19.66872039 44.30865065 -13.56724096 44.17470176 -8.078125 42.7109375 C-8.078125 42.0509375 -8.078125 41.3909375 -8.078125 40.7109375 C-7.1809375 40.370625 -7.1809375 40.370625 -6.265625 40.0234375 C-2.80616303 37.94776032 -1.49318893 35.1447947 -0.390625 31.3359375 C0.5142612 23.73489338 -0.18389174 17.50338108 -4.890625 11.3359375 C-13.59010134 4.87346936 -25.28818313 6.24197737 -32.453125 14.0234375 Z " fill="#FEFEFE" transform="translate(515.078125,490.2890625)"/>
<path d="M0 0 C5.07845315 4.16411126 6.84398609 8.5989757 8 15 C8.24661575 18.2548481 8.23467826 21.4873658 8.1953125 24.75 C8.1924826 25.64871826 8.18965271 26.54743652 8.18673706 27.47338867 C8.17563125 30.31573365 8.15054505 33.15775186 8.125 36 C8.11495777 37.9387975 8.10583411 39.87759999 8.09765625 41.81640625 C8.07572345 46.54439482 8.04126084 51.2721422 8 56 C4.37 56 0.74 56 -3 56 C-3 54.02 -3 52.04 -3 50 C-3.65742187 50.61488281 -3.65742187 50.61488281 -4.328125 51.2421875 C-10.8915222 56.81840707 -17.41349004 58.17109152 -25.93359375 57.91015625 C-32.8622984 57.05487925 -37.520632 54.37763698 -42 49 C-43.93806237 43.18581288 -44.20496184 36.35363273 -42.1171875 30.54296875 C-37.57964358 23.43777273 -29.36262239 21.3883812 -21.5859375 19.375 C-18.11592759 18.87179615 -14.68398369 18.89400307 -11.1875 18.9375 C-10.49462891 18.94201172 -9.80175781 18.94652344 -9.08789062 18.95117188 C-7.39188932 18.96286844 -5.69593297 18.98080076 -4 19 C-4.73850047 13.55964009 -4.73850047 13.55964009 -7.9375 9.5625 C-8.618125 9.376875 -9.29875 9.19125 -10 9 C-10.99 8.67 -11.98 8.34 -13 8 C-19.68748398 7.04269146 -24.0290342 8.62636864 -29.73828125 12.1015625 C-32 13 -32 13 -34.1796875 12.23046875 C-37.69531605 9.85402456 -37.69531605 9.85402456 -39 8 C-39.0625 5.5625 -39.0625 5.5625 -38 3 C-28.88467736 -4.5961022 -10.4547228 -6.28620859 0 0 Z M-30 35 C-30.59869338 37.35011728 -30.59869338 37.35011728 -30.3125 39.75 C-30.26738281 40.54921875 -30.22226562 41.3484375 -30.17578125 42.171875 C-30.11777344 42.77515625 -30.05976562 43.3784375 -30 44 C-25.35196891 46.78881866 -21.35758408 47.87286482 -16 47 C-12.09092378 45.8699216 -9.07255396 44.44312738 -6.609375 41.12890625 C-4.63983383 37.46028907 -3.35909232 34.2299907 -4 30 C-5.08968674 28.69119034 -5.08968674 28.69119034 -7.75 28.8125 C-19.95864424 28.99686958 -19.95864424 28.99686958 -30 35 Z " fill="#FEFEFE" transform="translate(850,489)"/>
<path d="M0 0 C3.73904206 2.61059243 6.28310135 4.85711655 7.734375 9.2109375 C7.84862638 10.75991475 7.91055415 12.31305516 7.93969727 13.8659668 C7.9696151 15.27708992 7.9696151 15.27708992 8.00013733 16.71672058 C8.01684982 17.72930435 8.03356232 18.74188812 8.05078125 19.78515625 C8.07156235 20.82412552 8.09234344 21.86309479 8.11375427 22.93354797 C8.17918156 26.25511003 8.23810321 29.57675166 8.296875 32.8984375 C8.34006669 35.1490968 8.38368119 37.39974802 8.42773438 39.65039062 C8.53485603 45.17049119 8.63614289 50.69067187 8.734375 56.2109375 C5.104375 56.2109375 1.474375 56.2109375 -2.265625 56.2109375 C-2.925625 54.5609375 -3.585625 52.9109375 -4.265625 51.2109375 C-4.81992187 51.83355469 -5.37421875 52.45617187 -5.9453125 53.09765625 C-10.30182117 57.06545286 -16.16343556 58.13450675 -21.9609375 58.27734375 C-28.59991977 57.77992765 -34.61956286 56.40178663 -39.140625 51.2109375 C-42.95207778 45.83006299 -42.88397211 40.60948589 -42.265625 34.2109375 C-40.73091965 28.95188349 -37.33793124 25.89631281 -32.64453125 23.27734375 C-23.03143631 18.96802533 -13.58774362 18.83020362 -3.265625 19.2109375 C-4.86912402 13.37337885 -4.86912402 13.37337885 -8.953125 9.2109375 C-16.12755535 7.04507174 -20.6354608 8.01863622 -27.265625 11.2109375 C-30.390625 12.6484375 -30.390625 12.6484375 -33.265625 13.2109375 C-36.140625 11.6484375 -36.140625 11.6484375 -38.265625 9.2109375 C-38.890625 6.7109375 -38.890625 6.7109375 -38.265625 4.2109375 C-29.76729365 -5.10981301 -10.64240378 -5.81619742 0 0 Z M-17.328125 29.8984375 C-18.51535156 30.02605469 -19.70257812 30.15367187 -20.92578125 30.28515625 C-24.99490054 31.41308756 -26.6617158 32.9281693 -29.265625 36.2109375 C-29.92011625 40.9286011 -29.92011625 40.9286011 -27.953125 45.0859375 C-23.77991926 47.86807466 -19.08521481 47.78736685 -14.265625 47.2109375 C-10.57495603 45.91001204 -7.91403166 43.9890255 -5.390625 40.9609375 C-3.89340904 37.30107627 -3.52895211 34.16084417 -3.265625 30.2109375 C-4.33926216 28.91126529 -4.33926216 28.91126529 -6.88671875 29.10546875 C-10.40314077 29.2152299 -13.83419461 29.48403226 -17.328125 29.8984375 Z " fill="#FEFEFE" transform="translate(712.265625,488.7890625)"/>
<path d="M0 0 C0.98226563 -0.00257813 1.96453125 -0.00515625 2.9765625 -0.0078125 C5.375 0.125 5.375 0.125 6.375 1.125 C6.47379565 2.935285 6.50471514 4.74952727 6.5 6.5625 C6.50386719 8.04556641 6.50386719 8.04556641 6.5078125 9.55859375 C6.375 12.125 6.375 12.125 5.375 14.125 C0.425 14.125 -4.525 14.125 -9.625 14.125 C-10.285 15.445 -10.945 16.765 -11.625 18.125 C-12.4135437 19.22751099 -12.4135437 19.22751099 -13.21801758 20.35229492 C-15.08858018 24.03856588 -15.10278699 27.44377075 -15.13671875 31.48828125 C-15.15466995 32.28026413 -15.17262115 33.07224701 -15.19111633 33.88822937 C-15.24506838 36.40459962 -15.27906563 38.92078185 -15.3125 41.4375 C-15.34568651 43.14911462 -15.38017741 44.86070448 -15.41601562 46.57226562 C-15.50078582 50.75637442 -15.56766843 54.94042893 -15.625 59.125 C-17.60409398 59.15186553 -19.58328971 59.17133375 -21.5625 59.1875 C-22.66464844 59.19910156 -23.76679687 59.21070313 -24.90234375 59.22265625 C-27.625 59.125 -27.625 59.125 -28.625 58.125 C-28.71865006 56.3757128 -28.74244438 54.62263746 -28.73852539 52.87084961 C-28.73844986 51.74976303 -28.73837433 50.62867645 -28.73829651 49.47361755 C-28.73313522 48.2538472 -28.72797394 47.03407684 -28.72265625 45.77734375 C-28.7212413 44.53578018 -28.71982635 43.29421661 -28.71836853 42.01502991 C-28.71370591 38.70894509 -28.70471497 35.40292854 -28.69366455 32.09686279 C-28.68344827 28.7253885 -28.67887045 25.35390717 -28.67382812 21.98242188 C-28.66277395 15.36326225 -28.64601736 8.74413507 -28.625 2.125 C-26.10024538 0.86262269 -24.31299534 1.02643596 -21.5 1.0625 C-20.58992188 1.07152344 -19.67984375 1.08054687 -18.7421875 1.08984375 C-18.04351563 1.10144531 -17.34484375 1.11304688 -16.625 1.125 C-15.965 2.445 -15.305 3.765 -14.625 5.125 C-13.696875 4.485625 -12.76875 3.84625 -11.8125 3.1875 C-7.6242299 0.47744288 -4.88816351 -0.01289753 0 0 Z " fill="#FEFEFE" transform="translate(1082.625,485.875)"/>
<path d="M0 0 C0.96421875 0.00644531 1.9284375 0.01289063 2.921875 0.01953125 C5.25 0.1875 5.25 0.1875 6.25 1.1875 C6.32244053 3.20714199 6.33377188 5.22917124 6.3125 7.25 C6.30347656 8.35472656 6.29445313 9.45945312 6.28515625 10.59765625 C6.27355469 11.45230469 6.26195312 12.30695313 6.25 13.1875 C3.57280841 13.94574599 1.78718856 14.17003542 -1.0625 14.0625 C-5.46294672 14.21166769 -7.99122109 14.87440529 -11.75 17.1875 C-14.30859214 22.7166008 -15.20676016 27.36487658 -15.26171875 33.40625 C-15.27966995 34.14959595 -15.29762115 34.89294189 -15.31611633 35.65881348 C-15.36971465 38.00165354 -15.4039498 40.34429605 -15.4375 42.6875 C-15.47071792 44.28908972 -15.50521163 45.89065351 -15.54101562 47.4921875 C-15.62541066 51.39048111 -15.69245932 55.28872131 -15.75 59.1875 C-20.04 59.1875 -24.33 59.1875 -28.75 59.1875 C-28.75 40.3775 -28.75 21.5675 -28.75 2.1875 C-24.85835652 0.89028551 -21.85570774 1.05716007 -17.75 1.1875 C-17.09 1.5175 -16.43 1.8475 -15.75 2.1875 C-15.125 4.25 -15.125 4.25 -14.75 6.1875 C-14.193125 5.56875 -13.63625 4.95 -13.0625 4.3125 C-9.05417946 0.62917843 -5.35208308 -0.07955799 0 0 Z " fill="#FEFEFE" transform="translate(899.75,485.8125)"/>
<path d="M0 0 C4.95 0 9.9 0 15 0 C15 0.66 15 1.32 15 2 C13.02 2.33 11.04 2.66 9 3 C10.98 4.32 12.96 5.64 15 7 C14.67 7.66 14.34 8.32 14 9 C13.34 8.67 12.68 8.34 12 8 C12 8.66 12 9.32 12 10 C11.17274414 9.99476318 10.34548828 9.98952637 9.49316406 9.98413086 C5.74545043 9.96334531 1.99774894 9.95033476 -1.75 9.9375 C-3.70292969 9.92493164 -3.70292969 9.92493164 -5.6953125 9.91210938 C-6.94570312 9.90888672 -8.19609375 9.90566406 -9.484375 9.90234375 C-10.63647461 9.89710693 -11.78857422 9.89187012 -12.97558594 9.88647461 C-15.51926964 9.98195515 -17.58398313 10.25082739 -20 11 C-18.42798828 11.29003906 -18.42798828 11.29003906 -16.82421875 11.5859375 C-15.44524407 11.84859934 -14.06634151 12.11164 -12.6875 12.375 C-11.99720703 12.50132812 -11.30691406 12.62765625 -10.59570312 12.7578125 C-7.16296686 13.42114318 -4.94753542 14.03497639 -2 16 C-2.33 16.66 -2.66 17.32 -3 18 C-3.99 17.34 -4.98 16.68 -6 16 C-6 17.32 -6 18.64 -6 20 C-7.57201172 20.19916016 -7.57201172 20.19916016 -9.17578125 20.40234375 C-10.55470778 20.58057235 -11.93361293 20.75896641 -13.3125 20.9375 C-14.00279297 21.02451172 -14.69308594 21.11152344 -15.40429688 21.20117188 C-18.40142288 21.59210135 -21.12450119 22.0415004 -24 23 C-19.545 23.99 -19.545 23.99 -15 25 C-15.33 26.32 -15.66 27.64 -16 29 C-19.96 29.99 -23.92 30.98 -28 32 C-27 29 -27 29 -24 27 C-27.63 27.33 -31.26 27.66 -35 28 C-33 23 -33 23 -31.08203125 21.671875 C-22.97824967 18.38014961 -15.67772687 17.84285806 -7 18 C-7 17.34 -7 16.68 -7 16 C-7.95261719 15.87882812 -8.90523437 15.75765625 -9.88671875 15.6328125 C-11.14097656 15.46523438 -12.39523438 15.29765625 -13.6875 15.125 C-14.92886719 14.96257812 -16.17023438 14.80015625 -17.44921875 14.6328125 C-20.57795295 14.07521631 -23.12148102 13.30991877 -26 12 C-23.21909802 7.82864704 -20.68087002 7.67769198 -15.9296875 6.5625 C-8.00299441 5.42786401 0.01352318 5.78692206 8 6 C5.36 4.68 2.72 3.36 0 2 C0 1.34 0 0.68 0 0 Z " fill="#6ED9E0" transform="translate(254,379)"/>
<path d="M0 0 C15.49619057 4.09401938 29.60378941 4.29451134 45.21386719 1.30761719 C49.5189674 0.48701487 53.81039162 -0.02999299 58.17480469 -0.42675781 C57.17480469 1.57324219 57.17480469 1.57324219 54.66308594 2.60839844 C53.09107422 3.11693359 53.09107422 3.11693359 51.48730469 3.63574219 C50.4521875 3.97734375 49.41707031 4.31894531 48.35058594 4.67089844 C33.35477614 8.93170048 15.0421515 7.96227276 0.17480469 3.57324219 C-10.55703315 0.30667783 -10.55703315 0.30667783 -21.57519531 1.32324219 C-24.12165196 2.73794032 -25.81028278 4.48884991 -27.82519531 6.57324219 C-28.48519531 6.57324219 -29.14519531 6.57324219 -29.82519531 6.57324219 C-29.95925781 7.311875 -30.09332031 8.05050781 -30.23144531 8.81152344 C-30.75730622 11.25746858 -31.47153412 13.41744221 -32.32519531 15.76074219 C-34.72230446 23.44318469 -34.57302736 31.59082217 -34.82519531 39.57324219 C-35.15519531 39.57324219 -35.48519531 39.57324219 -35.82519531 39.57324219 C-36.3544586 11.19884901 -36.3544586 11.19884901 -29.58300781 3.23339844 C-20.71907244 -5.13809608 -10.82221035 -2.87743475 0 0 Z " fill="#6CD7DF" transform="translate(262.8251953125,455.4267578125)"/>
<path d="M0 0 C0.99 0 1.98 0 3 0 C7.58934859 10.95382258 10.92055054 20.67809144 11.75390625 32.6171875 C11.9278914 35.14549796 11.9278914 35.14549796 13 38 C13.66 38 14.32 38 15 38 C18.07196501 43.92450395 18.45964908 48.82076397 18.375 55.4375 C18.38660156 56.34048828 18.39820313 57.24347656 18.41015625 58.17382812 C18.38430295 64.12439508 17.40701895 68.55555237 15 74 C13.90686594 70.3643171 14.26646927 67.44670871 14.73046875 63.69140625 C15.56049921 55.40313103 16.14292516 46.5283752 12 39 C11.31550781 38.40574219 10.63101562 37.81148438 9.92578125 37.19921875 C7.23239862 34.12340856 7.49967534 31.91225179 7.4375 27.875 C7.22475658 21.65925812 6.6518715 15.70977117 4 10 C3.34 9.67 2.68 9.34 2 9 C2 9.99 2 10.98 2 12 C0.35 11.67 -1.3 11.34 -3 11 C-2.67 9.68 -2.34 8.36 -2 7 C-1.67 7.33 -1.34 7.66 -1 8 C-0.67 5.36 -0.34 2.72 0 0 Z " fill="#6ED5DC" transform="translate(340,405)"/>
<path d="M0 0 C3.95532153 1.31844051 4.20807546 2.80275178 6.125 6.4375 C10.16563877 13.63327585 15.06234328 20.37489552 22 25 C22 25.66 22 26.32 22 27 C22.61875 27.144375 23.2375 27.28875 23.875 27.4375 C26 28 26 28 28 29 C28 29.66 28 30.32 28 31 C37.66896695 34.02492821 49.04515294 36.08600259 59 33 C58.67 34.32 58.34 35.64 58 37 C42.75604428 38.6254362 32.26346447 37.24450427 19.953125 27.6171875 C11.24361227 20.21768697 3.23330658 11.14990775 0 0 Z " fill="#71DFE2" transform="translate(238,551)"/>
<path d="M0 0 C0.66 0.33 1.32 0.66 2 1 C1.34 1.99 0.68 2.98 0 4 C-0.66 4 -1.32 4 -2 4 C-2.33 4.99 -2.66 5.98 -3 7 C-14.49569422 13.81418979 -25.84596985 16.3674295 -39 14 C-43.78463107 12.65526053 -48.39785162 10.8698384 -53 9 C-50 7 -50 7 -47.765625 7.42578125 C-46.52039063 7.86470703 -46.52039063 7.86470703 -45.25 8.3125 C-33.19186798 12.26197513 -20.57756815 12.20469027 -9.01171875 6.53515625 C-5.70546678 4.57819959 -2.72176863 2.72176863 0 0 Z " fill="#6BD4DD" transform="translate(315,581)"/>
<path d="M0 0 C0.99 0.66 1.98 1.32 3 2 C-3.2595265 11.75510624 -9.04229266 20.17583873 -18.625 26.9375 C-19.45100708 27.52277466 -19.45100708 27.52277466 -20.29370117 28.11987305 C-23.48978293 30.27964805 -26.15817089 31.55012038 -30 32 C-27.26650035 29.11568658 -24.50016313 26.87333598 -21.1875 24.6875 C-12.35669601 18.58880692 -3.69739518 10.28056219 0 0 Z " fill="#6CD9DF" transform="translate(328,554)"/>
<path d="M0 0 C6.86091782 -0.35393624 11.7212307 0.53695154 18 3.25 C18.76183594 3.55035156 19.52367187 3.85070312 20.30859375 4.16015625 C22.5 5.078125 22.5 5.078125 26 7 C26.71875 9.12011719 26.71875 9.12011719 27 11 C26.16597656 10.59007812 25.33195312 10.18015625 24.47265625 9.7578125 C17.99181058 6.65472717 12.09086398 4.20184135 5 3 C5.99 4.98 6.98 6.96 8 9 C7.01 9.495 7.01 9.495 6 10 C4.99421411 8.71283353 3.99553202 7.42011342 3 6.125 C2.443125 5.40570313 1.88625 4.68640625 1.3125 3.9453125 C0 2 0 2 0 0 Z " fill="#6EE0E3" transform="translate(292,379)"/>
<path d="M0 0 C0.33 0 0.66 0 1 0 C1 8.25 1 16.5 1 25 C2.32 25.33 3.64 25.66 5 26 C5.33 19.4 5.66 12.8 6 6 C6.33 6 6.66 6 7 6 C7.25494218 9.10261506 7.47447008 12.20674802 7.6875 15.3125 C7.76033203 16.19357422 7.83316406 17.07464844 7.90820312 17.98242188 C7.99038086 19.25375977 7.99038086 19.25375977 8.07421875 20.55078125 C8.13182373 21.33106689 8.18942871 22.11135254 8.2487793 22.9152832 C8 25 8 25 6.65942383 26.79370117 C5 28 5 28 2.375 27.75 C0 27 0 27 -1 26 C-1.09949077 24.24314326 -1.1308026 22.48232667 -1.1328125 20.72265625 C-1.13410156 19.65208984 -1.13539063 18.58152344 -1.13671875 17.47851562 C-1.13285156 16.35123047 -1.12898437 15.22394531 -1.125 14.0625 C-1.12886719 12.93908203 -1.13273438 11.81566406 -1.13671875 10.65820312 C-1.13542969 9.58634766 -1.13414062 8.51449219 -1.1328125 7.41015625 C-1.13168457 6.42152588 -1.13055664 5.43289551 -1.12939453 4.41430664 C-1 2 -1 2 0 0 Z " fill="#71DBE1" transform="translate(249,578)"/>
<path d="M0 0 C2.1484375 0.37890625 2.1484375 0.37890625 4 1 C3.45730469 1.44730469 2.91460937 1.89460938 2.35546875 2.35546875 C-1.48879484 5.60404465 -4.76332678 8.38686148 -7 13 C-6.4225 12.649375 -5.845 12.29875 -5.25 11.9375 C-2.60213494 10.83422289 -1.66814674 11.19843491 1 12 C-0.59910868 13.00806851 -2.20448262 14.00620385 -3.8125 15 C-5.15248047 15.8353125 -5.15248047 15.8353125 -6.51953125 16.6875 C-9 18 -9 18 -12 18 C-11.65858782 12.53740508 -8.36195261 9.03596726 -5 5 C-4.54882812 4.45214844 -4.09765625 3.90429688 -3.6328125 3.33984375 C-2.375 1.9375 -2.375 1.9375 0 0 Z " fill="#69D4DD" transform="translate(221,411)"/>
<path d="M0 0 C0.99 0.495 0.99 0.495 2 1 C2.506845 2.85745509 2.93085328 4.7378389 3.3125 6.625 C4.63621811 12.24077381 6.16549078 15.6978677 10 20 C10.66 20.33 11.32 20.66 12 21 C15.33843453 22.66921727 16.99833502 25.93187418 19 29 C16 29 16 29 13.6875 26.8125 C12.800625 25.884375 11.91375 24.95625 11 24 C9.989375 23.236875 8.97875 22.47375 7.9375 21.6875 C1.80160296 16.07380696 0.56417079 10.25522056 0.078125 2.125 C0.05234375 1.42375 0.0265625 0.7225 0 0 Z " fill="#6FD5DC" transform="translate(212,499)"/>
<path d="M0 0 C0.33 0.66 0.66 1.32 1 2 C1.66 2 2.32 2 3 2 C2.72365204 5.98038812 2.4263724 9.95893454 2.125 13.9375 C2.04636719 15.07380859 1.96773437 16.21011719 1.88671875 17.38085938 C1.76103516 19.00024414 1.76103516 19.00024414 1.6328125 20.65234375 C1.55949707 21.65257568 1.48618164 22.65280762 1.41064453 23.68334961 C1.27513184 24.44784424 1.13961914 25.21233887 1 26 C0.34 26.33 -0.32 26.66 -1 27 C-1 19.74 -1 12.48 -1 5 C-2.32 5.33 -3.64 5.66 -5 6 C-3.63016497 2.83884224 -3.0109362 2.0072908 0 0 Z " fill="#67DEE4" transform="translate(214,446)"/>
<path d="M0 0 C3.96776161 1.3225872 4.25205351 2.85897003 6.1875 6.5 C9.48299214 12.38681929 13.30979767 17.17579189 18 22 C17.01 22.33 16.02 22.66 15 23 C1.60133815 8.78682983 1.60133815 8.78682983 0 0 Z " fill="#6CD5DD" transform="translate(238,551)"/>
<path d="M0 0 C0.66 0 1.32 0 2 0 C0.36385279 5.86286085 -1.71084274 9.61696749 -7 12.8125 C-10.85517894 15.62356798 -12.21394072 18.67143281 -14 23 C-14.73614485 20.45841959 -15.04490047 19.19456868 -14.4375 16.5625 C-12.88683598 13.79827284 -11.07361484 12.19112624 -8.58984375 10.25390625 C-4.90211097 7.34539956 -1.78871002 4.39047006 0 0 Z " fill="#73DFE4" transform="translate(354,510)"/>
<path d="M0 0 C2.02045442 0.60183749 4.02111039 1.27306096 6 2 C7.23689062 4.47378124 7.13310087 6.17915317 7.125 8.9375 C7.12757813 9.81277344 7.13015625 10.68804687 7.1328125 11.58984375 C7 14 7 14 6 17 C5.01 17 4.02 17 3 17 C3 12.71 3 8.42 3 4 C2.01 3.67 1.02 3.34 0 3 C0 2.01 0 1.02 0 0 Z " fill="#71D0D8" transform="translate(351,493)"/>
<path d="M0 0 C0.66 0 1.32 0 2 0 C2.27972656 0.66386719 2.55945313 1.32773437 2.84765625 2.01171875 C5.67613645 8.24165102 8.08993771 11.52349277 14 15 C13.67 16.32 13.34 17.64 13 19 C11.66666667 17.66666667 10.33333333 16.33333333 9 15 C8.175 14.21625 7.35 13.4325 6.5 12.625 C2.62343901 8.55461096 0 5.7417757 0 0 Z " fill="#6DCFD9" transform="translate(208,512)"/>
<path d="M0 0 C2 3 2 3 1.49609375 5.6640625 C1.14675781 6.64117187 0.79742187 7.61828125 0.4375 8.625 C0.10621094 9.60726563 -0.22507812 10.58953125 -0.56640625 11.6015625 C-2 14 -2 14 -4.65234375 14.8359375 C-5.42707031 14.89007813 -6.20179688 14.94421875 -7 15 C-8.25664978 12.09399739 -9 10.20395416 -9 7 C-8.01 7 -7.02 7 -6 7 C-6 8.98 -6 10.96 -6 13 C-3.70024295 12.12878804 -3.70024295 12.12878804 -2.9296875 9.27734375 C-2.58164062 8.17519531 -2.23359375 7.07304687 -1.875 5.9375 C-1.34519531 4.28041016 -1.34519531 4.28041016 -0.8046875 2.58984375 C-0.53914063 1.73519531 -0.27359375 0.88054687 0 0 Z " fill="#74DEE3" transform="translate(349,495)"/>
<path d="M0 0 C-2.98646769 1.99097846 -5.59687262 2.94124926 -9 4 C-9 4.66 -9 5.32 -9 6 C-11.31 6.33 -13.62 6.66 -16 7 C-15.76171875 5.14453125 -15.76171875 5.14453125 -15 3 C-10.28524998 -0.30528791 -5.60210739 -1.72372535 0 0 Z " fill="#73E2E5" transform="translate(236,399)"/>
<path d="M0 0 C2 3 2 3 1.4609375 6.06640625 C0.92339844 7.79697266 0.92339844 7.79697266 0.375 9.5625 C0.03210938 10.71878906 -0.31078125 11.87507812 -0.6640625 13.06640625 C-2 16 -2 16 -6 18 C-4.02 12.06 -2.04 6.12 0 0 Z " fill="#6EE0E5" transform="translate(346,529)"/>
<path d="M0 0 C4.28364261 0.47596029 6.26023924 2.83873758 9 6 C12.16380866 11.16755415 12.16380866 11.16755415 11.5703125 14.18359375 C11.38210938 14.78300781 11.19390625 15.38242187 11 16 C10.54109375 15.24074219 10.0821875 14.48148437 9.609375 13.69921875 C8.99578125 12.70535156 8.3821875 11.71148437 7.75 10.6875 C7.14671875 9.70136719 6.5434375 8.71523438 5.921875 7.69921875 C4.11107453 5.15600102 2.49657144 3.79510114 0 2 C0 1.34 0 0.68 0 0 Z " fill="#69D8DF" transform="translate(324,393)"/>
<path d="M0 0 C0.99 0 1.98 0 3 0 C3.66 0.99 4.32 1.98 5 3 C5.598125 3.2475 6.19625 3.495 6.8125 3.75 C10.18573581 5.67756332 11.9074841 8.79261908 14 12 C11 12 11 12 8.6875 9.8125 C7.800625 8.884375 6.91375 7.95625 6 7 C4.90600266 6.09177579 3.80188119 5.19559453 2.6875 4.3125 C1.800625 3.549375 0.91375 2.78625 0 2 C0 1.34 0 0.68 0 0 Z " fill="#67DCE2" transform="translate(217,516)"/>
<path d="M0 0 C0.66 0.33 1.32 0.66 2 1 C1.61328125 1.42410156 1.2265625 1.84820312 0.828125 2.28515625 C-2.7394097 6.30304806 -5.48173429 10.25403771 -8 15 C-8.671875 13.32421875 -8.671875 13.32421875 -9 11 C-7.890625 8.45703125 -7.890625 8.45703125 -6.25 5.8125 C-5.45335937 4.49185547 -5.45335937 4.49185547 -4.640625 3.14453125 C-3 1 -3 1 0 0 Z " fill="#6DD2D9" transform="translate(221,424)"/>
<path d="M0 0 C2.15002171 0.58908801 4.2949692 1.1967242 6.4375 1.8125 C7.63246094 2.14894531 8.82742188 2.48539062 10.05859375 2.83203125 C11.02925781 3.21746094 11.99992187 3.60289062 13 4 C13.33 4.99 13.66 5.98 14 7 C13.25234375 6.79503906 12.5046875 6.59007812 11.734375 6.37890625 C10.25710938 5.97478516 10.25710938 5.97478516 8.75 5.5625 C7.28820312 5.16224609 7.28820312 5.16224609 5.796875 4.75390625 C3.53627347 4.14455416 1.27377991 3.55761745 -1 3 C-0.67 2.01 -0.34 1.02 0 0 Z " fill="#70D8DF" transform="translate(271,379)"/>
<path d="M0 0 C0.33 1.32 0.66 2.64 1 4 C-3.455 7.96 -3.455 7.96 -8 12 C-8.99 11.67 -9.98 11.34 -11 11 C-10.37351562 10.45730469 -9.74703125 9.91460938 -9.1015625 9.35546875 C-8.28429687 8.64003906 -7.46703125 7.92460938 -6.625 7.1875 C-5.40683594 6.12595703 -5.40683594 6.12595703 -4.1640625 5.04296875 C-1.83816812 3.00018747 -1.83816812 3.00018747 0 0 Z " fill="#6ED6DB" transform="translate(359,516)"/>
<path d="M0 0 C2.97 0 5.94 0 9 0 C9 0.99 9 1.98 9 3 C5.7 3 2.4 3 -1 3 C-0.67 2.01 -0.34 1.02 0 0 Z " fill="#70D3D7" transform="translate(245,385)"/>
<path d="M0 0 C3.26008643 3.16952847 6.22237877 6.39937989 9 10 C5.40094092 9.44449305 4.00090201 8.25112752 1.75 5.4375 C1.22921875 4.79683594 0.7084375 4.15617188 0.171875 3.49609375 C-0.21484375 3.00238281 -0.6015625 2.50867188 -1 2 C-0.67 1.34 -0.34 0.68 0 0 Z " fill="#6AD3DA" transform="translate(241,567)"/>
<path d="M0 0 C3.7952131 1.49097658 5.61042731 3.75700849 8 7 C7.67 7.66 7.34 8.32 7 9 C5.82460004 8.07347299 4.65989423 7.13336613 3.5 6.1875 C2.52546875 5.40439453 2.52546875 5.40439453 1.53125 4.60546875 C0 3 0 3 0 0 Z " fill="#6CD3DD" transform="translate(331,456)"/>
<path d="M0 0 C0.33 0.99 0.66 1.98 1 3 C-0.14453125 4.82421875 -0.14453125 4.82421875 -1.8125 6.6875 C-2.35519531 7.31011719 -2.89789063 7.93273437 -3.45703125 8.57421875 C-5 10 -5 10 -7 10 C-5.33248852 6.05860922 -2.77289351 3.2107188 0 0 Z " fill="#6FD3DA" transform="translate(331,564)"/>
<path d="M0 0 C0.99 0.33 1.98 0.66 3 1 C2.67 6.94 2.34 12.88 2 19 C1.67 19 1.34 19 1 19 C0.67 12.73 0.34 6.46 0 0 Z " fill="#6CDEE2" transform="translate(355,449)"/>
<path d="M0 0 C0.66 0 1.32 0 2 0 C1.731875 0.515625 1.46375 1.03125 1.1875 1.5625 C-0.32349407 4.66401415 -1.65572726 7.82262806 -3 11 C-3.98995103 8.32713221 -4.04574968 7.14780667 -3.1875 4.375 C-2 2 -2 2 0 0 Z " fill="#6DD6DD" transform="translate(343,522)"/>
<path d="M0 0 C0.99 0 1.98 0 3 0 C3.66 1.65 4.32 3.3 5 5 C4.01 5 3.02 5 2 5 C1.67 5.66 1.34 6.32 1 7 C0 6 0 6 -0.0625 2.9375 C-0.041875 1.968125 -0.02125 0.99875 0 0 Z " fill="#6CCCD5" transform="translate(340,405)"/>
<path d="M0 0 C-0.33 0.66 -0.66 1.32 -1 2 C-3.28515625 2.4140625 -3.28515625 2.4140625 -6.0625 2.625 C-6.98160156 2.69976562 -7.90070313 2.77453125 -8.84765625 2.8515625 C-9.55792969 2.90054687 -10.26820313 2.94953125 -11 3 C-9 0 -9 0 -6.0625 -0.75 C-3 -1 -3 -1 0 0 Z " fill="#70EBEF" transform="translate(245,386)"/>
<path d="M0 0 C3.68754757 0.49831724 5.60490662 1.10067643 8 4 C7.67 4.66 7.34 5.32 7 6 C3.535 4.02 3.535 4.02 0 2 C0 1.34 0 0.68 0 0 Z " fill="#6EE4E6" transform="translate(286,385)"/>
<path d="M0 0 C0.33 0 0.66 0 1 0 C0.125 7.75 0.125 7.75 -1 10 C-1.66 9.67 -2.32 9.34 -3 9 C-2.5020163 5.26512223 -2.12508244 3.18762365 0 0 Z " fill="#6FD1D9" transform="translate(338,534)"/>
<path d="M0 0 C3.00617269 3.00617269 2.59585316 5.82381598 3 10 C2.34 10 1.68 10 1 10 C0.63720544 8.71073008 0.28503302 7.41846728 -0.0625 6.125 C-0.35833984 5.04605469 -0.35833984 5.04605469 -0.66015625 3.9453125 C-1 2 -1 2 0 0 Z " fill="#6CDAE0" transform="translate(223,529)"/>
<path d="M0 0 C2.31 0 4.62 0 7 0 C7 0.66 7 1.32 7 2 C4.69 2.33 2.38 2.66 0 3 C0 2.01 0 1.02 0 0 Z " fill="#6DE2E6" transform="translate(284,593)"/>
<path d="M0 0 C0.33 0.99 0.66 1.98 1 3 C-0.4375 5.6875 -0.4375 5.6875 -2 8 C-2.66 7.67 -3.32 7.34 -4 7 C-3.39816251 4.97954558 -2.72693904 2.97888961 -2 1 C-1.34 0.67 -0.68 0.34 0 0 Z " fill="#6BD7DD" transform="translate(344,539)"/>
<path d="M0 0 C-0.99 0 -1.98 0 -3 0 C-3 0.66 -3 1.32 -3 2 C-4.65 2.66 -6.3 3.32 -8 4 C-8 3.01 -8 2.02 -8 1 C-4.93251126 -0.86240388 -3.40254489 -1.2151946 0 0 Z " fill="#71DDE1" transform="translate(237,388)"/>
<path d="M0 0 C2.475 0.495 2.475 0.495 5 1 C5.33 1.99 5.66 2.98 6 4 C6.99 4.33 7.98 4.66 9 5 C8.01 5.33 7.02 5.66 6 6 C2.8125 3.625 2.8125 3.625 0 1 C0 0.67 0 0.34 0 0 Z " fill="#65E3E6" transform="translate(254,574)"/>
<path d="M0 0 C0.33 0 0.66 0 1 0 C0.67 2.97 0.34 5.94 0 9 C-0.66 8.67 -1.32 8.34 -2 8 C-1.125 1.125 -1.125 1.125 0 0 Z " fill="#72D4DC" transform="translate(363,504)"/>
<path d="M0 0 C1.32 0.66 2.64 1.32 4 2 C1.6875 3.5625 1.6875 3.5625 -1 5 C-1.99 4.67 -2.98 4.34 -4 4 C-2.68 2.68 -1.36 1.36 0 0 Z " fill="#72DAE3" transform="translate(211,488)"/>
<path d="M0 0 C0.99 0.33 1.98 0.66 3 1 C2.34 1 1.68 1 1 1 C1.99 2.98 2.98 4.96 4 7 C3.01 7.495 3.01 7.495 2 8 C0.4375 6.25 0.4375 6.25 -1 4 C-0.6875 1.75 -0.6875 1.75 0 0 Z " fill="#6FD6DC" transform="translate(296,381)"/>
</svg>
